<?xml version="1.0" encoding="utf-8"?>
<!-- Generator: Adobe Illustrator 27.0.0, SVG Export Plug-In . SVG Version: 6.00 Build 0)  -->
<svg version="1.1" xmlns="http://www.w3.org/2000/svg" xmlns:xlink="http://www.w3.org/1999/xlink" x="0px" y="0px"
	 viewBox="0 0 920.8 258" style="enable-background:new 0 0 920.8 258;" xml:space="preserve">
<style type="text/css">
	.st0{display:none;}
	.st1{display:inline;}
	.st2{fill:#005CA9;}
	.st3{fill:#FFFFFF;}
</style>
<g id="fondos" class="st0">
</g>
<g id="Capa_1">
	<g>
		<path class="st2" d="M169.2,165.2h3.8c1.8,0,3-0.6,3.9-1.9c0.7-1.1,0.8-1.7,0.8-5.7c0-3.9-0.1-4.8-0.9-6c-1-1.4-2-1.8-3.7-1.8
			h-3.8V165.2z M166.1,146.8h7.3c2.7,0,5,1.3,6.3,3.6c1,1.8,1.1,2.6,1.1,7.1c0,4.8-0.2,5.7-1.2,7.2c-1.2,2-3.4,3.6-6.5,3.6h-7.1
			V146.8z"/>
		<path class="st2" d="M189.5,163.6c0.6,0.8,1.7,1.6,3.2,1.6c1.5,0,2.6-0.7,3.2-1.6c0.8-1.1,1.1-1.7,1.1-6.1c0-4.4-0.2-5-1.1-6.1
			c-0.6-0.8-1.7-1.6-3.2-1.6c-1.5,0-2.6,0.7-3.2,1.6c-0.8,1.1-1.1,1.7-1.1,6.1C188.4,161.9,188.6,162.5,189.5,163.6 M186.2,150.4
			c1-1.9,3.2-3.9,6.5-3.9c3.3,0,5.5,2,6.5,3.9c0.7,1.3,0.9,1.9,0.9,7.1c0,5.2-0.2,5.8-0.9,7.1c-1,1.9-3.2,3.9-6.5,3.9
			c-3.3,0-5.5-2-6.5-3.9c-0.7-1.3-0.9-1.9-0.9-7.1C185.3,152.3,185.5,151.7,186.2,150.4"/>
		<polygon class="st2" points="205.2,146.8 208.2,146.8 217.6,162 217.7,162 217.7,146.8 220.9,146.8 220.9,168.3 217.9,168.3 
			208.5,153 208.4,153 208.4,168.3 205.2,168.3 		"/>
		<path class="st2" d="M230.2,163.6c0.6,0.8,1.7,1.6,3.2,1.6c1.5,0,2.6-0.7,3.2-1.6c0.8-1.1,1.1-1.7,1.1-6.1c0-4.4-0.2-5-1.1-6.1
			c-0.6-0.8-1.7-1.6-3.2-1.6c-1.5,0-2.6,0.7-3.2,1.6c-0.8,1.1-1.1,1.7-1.1,6.1C229.2,161.9,229.4,162.5,230.2,163.6 M226.9,150.4
			c1-1.9,3.2-3.9,6.5-3.9c3.3,0,5.5,2,6.5,3.9c0.7,1.3,0.9,1.9,0.9,7.1c0,5.2-0.2,5.8-0.9,7.1c-1,1.9-3.2,3.9-6.5,3.9
			c-3.3,0-5.5-2-6.5-3.9c-0.7-1.3-0.9-1.9-0.9-7.1C226,152.3,226.2,151.7,226.9,150.4"/>
		<path class="st2" d="M246.3,163c1.6,1.3,3.7,2.1,5.9,2.1c2.6,0,4.1-1.2,4.1-3c0-1.5-0.8-2.7-2.7-2.9c-0.9-0.1-1.7-0.2-2.7-0.4
			c-3.6-0.5-5.5-2.9-5.5-6c0-3.7,2.5-6.3,6.8-6.3c2.6,0,4.9,0.9,6.7,2.2l-1.8,2.7c-1.5-1-3.3-1.7-5.1-1.7c-1.9,0-3.5,1-3.5,3.1
			c0,1.2,0.8,2.4,3,2.7c0.6,0.1,1.3,0.2,2.3,0.3c3.9,0.5,5.7,3.3,5.7,6.2c0,4-2.8,6.3-7.3,6.3c-3.1,0-5.8-1-7.9-3L246.3,163z"/>
		<polygon class="st2" points="267.8,149.7 262.1,149.7 262.1,146.8 276.6,146.8 276.6,149.7 270.9,149.7 270.9,168.3 267.8,168.3 
					"/>
		<rect x="280.3" y="146.8" class="st2" width="3.2" height="21.5"/>
		<path class="st2" d="M299.1,160.6l-3-9.4H296l-3,9.4H299.1z M300,163.5h-7.9l-1.6,4.8h-3.3l7.6-21.5h2.6l7.6,21.5h-3.3L300,163.5z
			"/>
		<path class="st2" d="M166.3,197.6c1.6,1.3,3.7,2.1,5.9,2.1c2.6,0,4.1-1.2,4.1-3c0-1.5-0.8-2.7-2.7-2.9c-0.9-0.1-1.7-0.2-2.7-0.4
			c-3.6-0.5-5.5-2.9-5.5-6c0-3.7,2.5-6.3,6.8-6.3c2.6,0,4.9,0.9,6.7,2.2l-1.8,2.7c-1.5-1-3.3-1.7-5.1-1.7c-1.9,0-3.5,1-3.5,3.1
			c0,1.2,0.8,2.4,3,2.7c0.6,0.1,1.3,0.2,2.3,0.3c3.9,0.5,5.7,3.3,5.7,6.2c0,4-2.8,6.3-7.3,6.3c-3.1,0-5.8-1-7.9-3L166.3,197.6z"/>
		<path class="st2" d="M191,185.7L191,185.7l3.1,9.4H188L191,185.7z M189.7,181.3l-7.6,21.5h3.3l1.6-4.8h7.9l1.6,4.8h3.3l-7.6-21.5
			H189.7z"/>
		<polygon class="st2" points="216.1,181.3 216.1,196.6 216,196.6 206.6,181.3 203.6,181.3 203.6,202.8 206.8,202.8 206.8,187.5 
			206.8,187.5 216.2,202.8 219.2,202.8 219.2,181.3 		"/>
		<path class="st2" d="M233.8,197.6c1.6,1.3,3.7,2.1,5.9,2.1c2.6,0,4.1-1.2,4.1-3c0-1.5-0.8-2.7-2.7-2.9c-0.9-0.1-1.7-0.2-2.7-0.4
			c-3.6-0.5-5.5-2.9-5.5-6c0-3.7,2.5-6.3,6.8-6.3c2.6,0,4.9,0.9,6.7,2.2l-1.8,2.7c-1.5-1-3.3-1.7-5.1-1.7c-1.9,0-3.5,1-3.5,3.1
			c0,1.2,0.8,2.4,3,2.7c0.6,0.1,1.3,0.2,2.3,0.3c3.9,0.5,5.7,3.3,5.7,6.2c0,4-2.8,6.3-7.3,6.3c-3.1,0-5.8-1-7.9-3L233.8,197.6z"/>
		<polygon class="st2" points="251.8,181.3 251.8,202.8 265.1,202.8 265.1,199.7 254.9,199.7 254.9,193.4 263.6,193.4 263.6,190.5 
			254.9,190.5 254.9,184.4 265.1,184.4 265.1,181.3 		"/>
		<path class="st2" d="M272.7,193.2v6.5h4.9c2.3,0,3.4-1.5,3.4-3.2c0-1.7-1.1-3.2-3.4-3.2H272.7z M272.7,184.2v6.2h4.6
			c2.3,0,3.4-1.4,3.4-3.1c0-1.7-1.1-3.1-3.4-3.1H272.7z M269.5,181.3h8.1c4.1,0,6.2,2.4,6.2,5.8c0,1.8-0.6,3.5-3.1,4.6v0.1
			c2.3,0.5,3.4,2.8,3.4,5c0,3.7-2.7,6.1-5.8,6.1h-8.8V181.3z"/>
		<path class="st2" d="M295.5,185.7L295.5,185.7l3.1,9.4h-6.1L295.5,185.7z M294.2,181.3l-7.6,21.5h3.3l1.6-4.8h7.9l1.6,4.8h3.3
			l-7.6-21.5H294.2z"/>
		<path class="st2" d="M308.3,197.6c1.6,1.3,3.7,2.1,5.9,2.1c2.6,0,4.1-1.2,4.1-3c0-1.5-0.8-2.7-2.7-2.9c-0.9-0.1-1.7-0.2-2.7-0.4
			c-3.6-0.5-5.5-2.9-5.5-6c0-3.7,2.5-6.3,6.8-6.3c2.6,0,4.9,0.9,6.7,2.2l-1.8,2.7c-1.5-1-3.3-1.7-5.1-1.7c-1.9,0-3.5,1-3.5,3.1
			c0,1.2,0.8,2.4,3,2.7c0.6,0.1,1.3,0.2,2.3,0.3c3.9,0.5,5.7,3.3,5.7,6.2c0,4-2.8,6.3-7.3,6.3c-3.1,0-5.8-1-7.9-3L308.3,197.6z"/>
		<polygon class="st2" points="324.2,181.3 324.2,184.2 329.9,184.2 329.9,202.8 333,202.8 333,184.2 338.7,184.2 338.7,181.3 		"/>
		<rect x="342.4" y="181.3" class="st2" width="3.2" height="21.5"/>
		<path class="st2" d="M358.1,185.7L358.1,185.7l3.1,9.4h-6.1L358.1,185.7z M356.8,181.3l-7.6,21.5h3.3l1.6-4.8h7.9l1.6,4.8h3.3
			l-7.6-21.5H356.8z M358.6,175.8l-2.7,4.4h2.5l4.1-4.4H358.6z"/>
		<polygon class="st2" points="383.1,181.3 383.1,196.6 383.1,196.6 373.7,181.3 370.7,181.3 370.7,202.8 373.8,202.8 373.8,187.5 
			373.9,187.5 383.3,202.8 386.3,202.8 386.3,181.3 		"/>
		<path class="st2" d="M139.1,72.8c-1.1-0.3-2.9-0.8-5.2-1.3c0-0.1,0-0.1,0-0.2c0.8-3.9,4.2-6.8,8.3-6.8c0.1,0,0.2,0,0.4,0
			L139.1,72.8z M92.9,68.3c0-0.1,0-0.2,0-0.2c0-0.1,0-0.1,0-0.2c0-0.3,0-0.5,0-0.8c0-4.7,3.8-8.5,8.5-8.5c4.7,0,8.5,3.8,8.5,8.5
			c0,0.4,0,0.8-0.1,1.2c-2.7-0.2-5.5-0.2-8.4-0.2C98.5,68.1,95.6,68.2,92.9,68.3 M60.2,64.6c0.1,0,0.2,0,0.3,0
			c4.1,0,7.5,2.9,8.3,6.8c0,0.1,0,0.1,0,0.2c-2.3,0.5-4.1,0.9-5.2,1.3L60.2,64.6z M72.3,69.3c0-4.7,3.8-8.5,8.5-8.5
			c4.4,0,8,3.3,8.5,7.5c0,0.1,0,0.1,0,0.2c0,0,0,0,0,0.1c-6.7,0.5-12.4,1.4-16.9,2.2c0,0,0-0.1,0-0.1C72.4,70.2,72.3,69.7,72.3,69.3
			 M122,60.8c4.7,0,8.5,3.8,8.5,8.5c0,0.5,0,0.9-0.1,1.3c0,0.1,0,0.1,0,0.1c-4.4-0.8-10.2-1.7-16.9-2.2
			C113.8,64.2,117.5,60.8,122,60.8 M142.3,61c-3.5,0-6.7,1.5-9,4c-1.8-4.5-6.2-7.8-11.3-7.8c-3.9,0-7.4,1.9-9.6,4.8
			c-1.9-4.1-6.1-6.9-11-6.9c-4.8,0-9,2.8-10.9,6.9c-2.2-2.9-5.7-4.7-9.6-4.7c-5.2,0-9.6,3.2-11.3,7.8c-2.2-2.4-5.4-4-9-4
			c-1.8,0-3.4,0.4-4.9,1.1l0.5,1.2l0.9,2l5.1,12.2c0,0,16.1-5.1,39.2-5.1s39.2,5.1,39.2,5.1l5.1-12.2l0.9-2l0.5-1.2
			C145.7,61.3,144,61,142.3,61"/>
		<path class="st2" d="M138.9,81.2c-4.7-1.3-18.8-4.6-37.5-4.6c-18.7,0-32.7,3.3-37.4,4.6l1.6,3.8c5.9-1.5,18.9-4.2,35.8-4.2
			c16.9,0,30,2.7,35.8,4.2L138.9,81.2z"/>
		<path class="st2" d="M136.8,132.2H125c0,0,0.4-7.1,3.3-17h11.7C140.1,115.2,137.1,123.9,136.8,132.2 M126.8,160.2
			c0,0-2.8-11.4-2.1-23.8h11.7c0,0-1,10.5,2.3,25.3L126.8,160.2z M120.8,132.2h-12.1c0,0,0.1-6.3,3.3-17h12.1
			C121.1,125.4,120.8,132.2,120.8,132.2 M110.1,158.1c0,0-2.3-8.6-1.7-21.7h12.1c0,0-0.6,10.2,2.1,23.2L110.1,158.1z M104.5,132.2
			H86.4l6.4-17h15C107.8,115.2,105.3,122.4,104.5,132.2 M78.6,154.1l6.5-17.8h19c0,0-0.6,10.3,1.6,21.1L78.6,154.1z M62.7,140.5
			l25.7-25.4l-14,38.5L62.7,140.5z M131.6,98.2c0,0-2.9,4.5-6.1,12.8l-12.1,0L131.6,98.2z M115.3,98.2c0,0-4.3,7.3-6.1,12.8l-14.9,0
			L115.3,98.2z M55.6,90.2v84.3c8.5,3.6,17,4.2,25.5,3.4l-10.1-20.5l67.7,8.5l-5.2,5.2c4.5,0.5,9,1.5,13.5,3.4V90.2H55.6z"/>
		<path class="st2" d="M147.2,199.1c-30.5-12.8-61,12.9-91.5,0v-20.7c30.5,12.8,61-12.9,91.5,0V199.1z"/>
		<rect x="450.7" y="55" width="2.8" height="148"/>
		<path class="st2" d="M651.2,188.3c-6.1,0-9-3.6-9-7.4c0-4.6,2.5-8.2,8.6-8.2c0.4,0,118.6,0,119,0c5.5,0.5,7.5,3.6,7.6,7.2
			c0.2,4.6-1.9,7.7-7.2,8.4C769.7,188.3,651.6,188.3,651.2,188.3 M649.9,202.7c0.4,0,120.7,0,121,0c12.7-0.5,22.1-9.9,22.1-22.3
			c0-12.4-9.4-21.8-22.2-22.3c-0.3,0-120.6,0-120.9,0c-13.2,0-23.1,9.6-23.1,22.3C626.8,193.1,636.7,202.7,649.9,202.7"/>
		<path d="M842.6,188.5c-4.4,0-7.6-3.3-7.6-7.7c0-4.4,3.2-7.7,7.6-7.7c4.4,0,7.6,3.3,7.6,7.7C850.2,185.2,847,188.5,842.6,188.5
			 M839.6,203c4.2,0,7.7-1.3,10.6-3.7v2.7h14.9v-42.4h-14.9v2.7c-2.9-2.3-6.5-3.7-10.6-3.7c-11.5,0-20,9.5-20,22.2
			S828.1,203,839.6,203 M798.3,202h14.9v-59.8h-14.9V202z M594.8,202h14.9V183c0-5.3,3.8-8.7,11.4-8.7h1.9V159h-1.9
			c-4.4,0-8.3,2.1-11.4,5.6v-4.9h-14.9V202z M571.4,202h14.9v-42.4h-14.9V202z M578.9,156c5.1,0,9-3.8,9-9c0-5.1-3.9-9-9-9
			c-5.2,0-9.1,3.8-9.1,9C569.8,152.1,573.7,156,578.9,156 M516.8,202h15.9v-13.8l3.6-4.1l11.9,17.9h19.7l-21.4-30.2l20.8-27.1h-19.3
			l-15.2,21.4v-21.4h-15.9V202z"/>
		<path d="M842.3,105.5c-4.4,0-7.6-3.3-7.6-7.7s3.2-7.7,7.6-7.7c4.4,0,7.6,3.3,7.6,7.7S846.7,105.5,842.3,105.5 M839.3,119.9
			c4.2,0,7.7-1.3,10.6-3.7v2.7h14.9V76.6H850v2.7c-2.9-2.3-6.5-3.7-10.6-3.7c-11.5,0-20,9.5-20,22.2
			C819.3,110.4,827.9,119.9,839.3,119.9 M798.1,118.9H813V76.6h-14.9V118.9z M805.5,72.9c5.2,0,9.1-3.8,9.1-9c0-5.1-3.9-9-9.1-9
			c-5.1,0-9,3.8-9,9C796.5,69.1,800.4,72.9,805.5,72.9 M784.5,118.9h6.6v-13.6h-4.3c-2.4,0-3.7-1.2-3.7-3.4V90.2h8V76.6h-8V65.8
			h-14.1v7.1c0,2.5-1.2,3.7-3.7,3.7h-2.7v13.6h5.6v14.2C768.1,114.1,773.5,118.9,784.5,118.9 M741.5,119.9c10.8,0,18.4-6,18.4-14.8
			c0-15-22.3-12-22.3-16.4c0-1.2,1.5-2.1,3.2-2.1c2.1,0,3.8,1.2,3.8,2.7h14.5c0-7.6-7.8-13.7-18.4-13.7c-9.2,0-17.8,4.4-17.8,14.1
			c0,15.6,22.2,12.1,22.2,16.9c0,1.2-1.7,2.2-3.7,2.2c-2.4,0-4.4-1.3-4.4-3.2h-14.7C722.4,113.4,730.2,119.9,741.5,119.9
			 M695.9,105.5c-4.4,0-7.6-3.3-7.6-7.7s3.2-7.7,7.6-7.7c4.4,0,7.6,3.3,7.6,7.7S700.3,105.5,695.9,105.5 M695.9,119.9
			c13.1,0,23-9.6,23-22.2c0-12.6-9.9-22.2-23-22.2c-13.1,0-23,9.5-23,22.2C672.9,110.4,682.8,119.9,695.9,119.9 M625.3,118.9h14.9
			V96.3c0-3.8,2.6-6.3,6.4-6.3c3.5,0,5.7,2.4,5.7,6.1v22.8h14.9V91.1c0-9.4-6.2-15.5-15.6-15.5c-4.5,0-8.3,1.4-11.5,4.1v-3.2h-14.9
			V118.9z M596.4,105.5c-4.4,0-7.6-3.3-7.6-7.7s3.2-7.7,7.6-7.7c4.4,0,7.6,3.3,7.6,7.7S600.8,105.5,596.4,105.5 M596.4,119.9
			c13.1,0,23-9.6,23-22.2c0-12.6-9.9-22.2-23-22.2c-13.1,0-23,9.5-23,22.2C573.4,110.4,583.3,119.9,596.4,119.9 M539.3,76.6
			c7.7,0,13.5,5.9,13.5,13.7c0,7.8-5.8,13.7-13.5,13.7h-6.6V76.6H539.3z M516.8,118.9h22.8c16.9,0,29.5-12.3,29.5-28.6
			c0-16.4-12.6-28.6-29.5-28.6h-22.8V118.9z"/>
	</g>
</g>
</svg>
